<svg id="Layer_1" data-name="Layer 1" xmlns="http://www.w3.org/2000/svg" viewBox="0 0 155.91 56.69"><defs><style>.cls-1{fill:#d55e2b;}.cls-2{fill:#3d4252;}</style></defs><title>Amko Basis</title><path class="cls-1" d="M48.47,40.74h4.17L42.33,10.5H37.62L27.34,40.74h4l3.14-9.51H45.24m-7-11.8c.58-1.84,1.08-3.68,1.52-5.47h.09c.45,1.74.9,3.54,1.57,5.51l3,8.71h-9.1Z"/><path class="cls-1" d="M60.63,27.77c.27-4.53.5-9.6.58-13.37h.09c.86,3.59,2.07,7.5,3.5,11.76l4.89,14.4h3L78,25.89c1.53-4.17,2.78-7.94,3.82-11.49h.13c0,3.77.22,8.84.45,13.06l.76,13.28H87L85.08,10.5h-5L74.72,25.13c-1.35,3.81-2.42,7.13-3.19,10.18H71.4c-.76-3.14-1.8-6.46-3.05-10.18L63.19,10.5h-5L56.1,40.74h3.72Z"/><path class="cls-1" d="M96.88,29.21l2.87-3.32,10,14.85h4.62l-11.8-17.41,11-12.83h-4.85L99.39,21.85c-.76,1-1.57,2.06-2.37,3.23h-.14V10.5H93V40.74h3.9Z"/><path class="cls-2" d="M107.92,23.93v2.8h3.64a16.22,16.22,0,0,0,10.33,13.94V37.61a13.43,13.43,0,0,1,0-24.18V10.37A16.21,16.21,0,0,0,111.6,23.93Z"/><path class="cls-2" d="M139.39,23.93v2.8h-3.64a16.22,16.22,0,0,1-10.33,13.94V37.61a13.43,13.43,0,0,0,0-24.18V10.37a16.21,16.21,0,0,1,10.29,13.56Z"/><path class="cls-2" d="M9.21,50.16H5.05L4.4,53.59H9.07l-.25,1.3H2.61l2-10.35h6l-.25,1.31H5.87l-.57,3H9.46Z"/><path class="cls-2" d="M12.16,54.89l2-10.35h1.81L18.47,50a22.61,22.61,0,0,1,1.05,3l0,0A21.07,21.07,0,0,1,20,49.86l1-5.32h1.49l-2,10.35h-1.6l-2.53-5.61a23.1,23.1,0,0,1-1.13-3.07h-.05c-.11,1-.28,2-.56,3.48l-1,5.19Z"/><path class="cls-2" d="M33.12,54.37a10.37,10.37,0,0,1-3.43.63,5.11,5.11,0,0,1-3.76-1.32,4.44,4.44,0,0,1-1.23-3.21A5.82,5.82,0,0,1,26.75,46a7.38,7.38,0,0,1,4.75-1.61,6.26,6.26,0,0,1,2.89.56l-.49,1.28a5.62,5.62,0,0,0-2.56-.53A5.17,5.17,0,0,0,27.91,47a4.48,4.48,0,0,0-1.53,3.35c0,2.06,1.19,3.34,3.65,3.34a4.54,4.54,0,0,0,1.74-.32l.53-2.77H30.06l.24-1.25h3.77Z"/><path class="cls-2" d="M40.17,44.54l-2,10.35H36.66l2-10.35Z"/><path class="cls-2" d="M42.12,54.89l2-10.35H45.9L48.43,50a21.28,21.28,0,0,1,1,3l0,0a18.75,18.75,0,0,1,.41-3.19l1-5.32h1.48l-2,10.35h-1.6l-2.53-5.61a24.61,24.61,0,0,1-1.13-3.07h0c-.11,1-.28,2-.56,3.48l-1,5.19Z"/><path class="cls-2" d="M61,50.16H56.82l-.64,3.43h4.66l-.25,1.3H54.38l2-10.35h6l-.25,1.31H57.64l-.57,3h4.16Z"/><path class="cls-2" d="M70.53,50.16H66.38l-.65,3.43h4.66l-.24,1.3H63.93l2-10.35h6l-.26,1.31H67.19l-.57,3h4.17Z"/><path class="cls-2" d="M75.43,44.72A12.43,12.43,0,0,1,78,44.47a4.42,4.42,0,0,1,2.71.73A2.2,2.2,0,0,1,81.66,47,3.16,3.16,0,0,1,79.13,50v0c.73.25,1.06,1,1.16,2a21.9,21.9,0,0,0,.4,2.94h-1.6a21,21,0,0,1-.3-2.47c-.11-1.38-.67-1.93-1.7-1.93H75.86L75,54.89H73.49Zm.66,4.6h1.28c1.64,0,2.68-.94,2.68-2.06s-1-1.57-2.12-1.57a4.78,4.78,0,0,0-1.16.11Z"/><path class="cls-2" d="M87.38,44.54l-2,10.35H83.87l2-10.35Z"/><path class="cls-2" d="M89.33,54.89l2-10.35h1.81L95.64,50a21.28,21.28,0,0,1,1,3l0,0a18.75,18.75,0,0,1,.41-3.19l1-5.32h1.48l-2,10.35h-1.6l-2.53-5.61a23.1,23.1,0,0,1-1.13-3.07h-.05c-.11,1-.28,2-.56,3.48l-1,5.19Z"/><path class="cls-2" d="M110.29,54.37a10.26,10.26,0,0,1-3.43.63,5.11,5.11,0,0,1-3.76-1.32,4.48,4.48,0,0,1-1.23-3.21A5.79,5.79,0,0,1,103.93,46a7.33,7.33,0,0,1,4.74-1.61,6.23,6.23,0,0,1,2.89.56l-.49,1.28a5.59,5.59,0,0,0-2.56-.53A5.18,5.18,0,0,0,105.08,47a4.51,4.51,0,0,0-1.52,3.35c0,2.06,1.18,3.34,3.64,3.34a4.54,4.54,0,0,0,1.74-.32l.53-2.77h-2.24l.24-1.25h3.77Z"/><rect class="cls-2" x="129.88" y="32.33" width="19.65" height="2.83" transform="translate(105.96 173.45) rotate(-90)"/><rect class="cls-2" x="1.57" y="40.74" width="139.55" height="2.83"/></svg>