<svg id="Layer_1" data-name="Layer_1" xmlns="http://www.w3.org/2000/svg" viewBox="0 0 350 32"><defs><style>.cls-1{fill:#122941;}.cls-2{fill:#00abe7;}</style></defs><title>Logo Dark blue</title><path class="cls-1" d="M244,0V32h-3V7.1L230.1,32h-3.27L215.9,7.1V32h-3V0H216l12.44,28.28L240.92,0Z"/><polygon class="cls-1" points="32.3 0 31.42 0 29.31 3.01 29.31 32 40.92 32 40.92 28.99 32.3 28.99 32.3 0"/><path class="cls-1" d="M197.33,0c-4.59,0-5.33.54-8.57,3.68s-3.82,8-3.82,12.39.57,9.23,3.82,12.36,4,3.57,8.57,3.57,5.33-.42,8.58-3.57,3.8-7.93,3.8-12.36-.56-9.25-3.8-12.39S201.91,0,197.33,0Zm6.45,26.39c-2.67,2.58-2.7,2.84-6.45,2.84s-3.8-.26-6.46-2.84-2.93-6.7-2.93-10.32.27-7.76,2.93-10.33,2.7-2.84,6.46-2.84,3.78.26,6.45,2.84,2.93,6.7,2.93,10.33S206.44,23.82,203.78,26.39Z"/><path class="cls-1" d="M312.72,0c-4.58,0-5.33.26-8.56,3.41s-3.83,8-3.83,12.45.57,9.28,3.83,12.42,4,3.72,8.56,3.72,5.33-.55,8.58-3.72,3.8-8,3.8-12.42-.56-9.29-3.8-12.45S317.3,0,312.72,0Zm6.45,26.23c-2.66,2.59-2.7,2.86-6.45,2.86s-3.79-.27-6.45-2.86-2.94-6.73-2.94-10.37.27-7.79,2.94-10.38S309,3,312.72,3s3.79-.1,6.45,2.49,2.94,6.73,2.94,10.38S321.83,23.65,319.17,26.23Z"/><polygon class="cls-1" points="271.05 2.98 281.65 2.98 281.73 32 284.72 32 284.72 3 293.26 3 293.26 0 273.06 0 271.05 2.98"/><polygon class="cls-1" points="347 0 347 26.72 330.78 0 327.54 0 327.54 32 330.53 32 330.53 5.3 346.78 32 350 32 350 0 347 0"/><rect class="cls-1" x="294.88" width="3.02" height="32"/><rect class="cls-1" x="44.94" width="3.02" height="32"/><path class="cls-1" d="M157,15.89v5.28a7.72,7.72,0,0,1-2.4,5.7,8.34,8.34,0,0,1-11.67,0,7.72,7.72,0,0,1-2.4-5.7V0h-3V21.17a10.5,10.5,0,0,0,3.29,7.77,11.53,11.53,0,0,0,2.84,2c1.16.85,2.3.95,4.46,1l.64,0c.22,0,.43,0,.65,0,2.17,0,3.31-.14,4.48-1a11.57,11.57,0,0,0,2.82-2A10.5,10.5,0,0,0,160,21.17V0h-3Z"/><polyline class="cls-1" points="112.39 32 107.89 32 129.58 0 133.59 0"/><polyline class="cls-2" points="133.57 3.4 133.57 16.25 133.59 19.18 133.59 31.8 133.59 32 130.6 32 130.6 31.8 130.6 19.18 123.89 19.18 125.87 16.25 130.6 16.25 130.6 7.89"/><polyline class="cls-1" points="249.6 32 245.1 32 266.8 0 270.82 0"/><polyline class="cls-2" points="270.79 3.4 270.79 16.25 270.82 19.18 270.82 32 270.79 32 267.82 32 267.82 32 267.82 19.18 261.11 19.18 263.09 16.25 267.82 16.25 267.82 7.89"/><polygon class="cls-1" points="162.81 3 173.41 3 173.41 32 176.41 32 176.41 3 184.94 3 184.94 0 164.74 0 162.81 3"/><polygon class="cls-2" points="67.64 19.95 67.63 29.01 55.82 29.01 55.82 29.01 55.8 29.01 54.49 29.01 54.48 29.01 51.06 29.01 49.15 32 52.47 32 54.87 32 55.46 32 69.51 32 70.72 32 70.72 18.29 67.64 19.95"/><polygon class="cls-1" points="55.46 0 55.46 0 54.58 0 52.47 3.01 52.47 6.13 52.47 6.13 52.47 10.3 67.64 19.95 70.72 18.29 55.46 8.4 55.46 3.04 67.64 3.01 67.67 3.01 70.72 4.48 70.72 3 70.72 2.23 70.72 0.71 70.72 0.01 55.46 0"/><path class="cls-1" d="M21.72,15V0H2.47L1.06,3H3.64V29H1.91L0,32H24.73V15ZM6.62,3h12.1V15H6.62Zm0,14.94H21.73L21.65,29H15.24v0H6.62Z"/><polygon class="cls-2" points="93.62 19.95 93.62 29.01 81.81 29.01 81.81 29.01 81.79 29.01 80.47 29.01 80.47 29.01 77.05 29.01 75.14 32 78.46 32 80.85 32 81.45 32 95.5 32 96.7 32 96.7 18.29 93.62 19.95"/><polygon class="cls-1" points="81.45 0 81.45 0 80.57 0 78.46 3.01 78.46 6.13 78.46 6.13 78.46 10.3 93.62 19.95 96.7 18.29 81.45 8.4 81.45 3.04 93.62 3.01 93.66 3.01 96.7 4.48 96.7 3 96.7 2.23 96.7 0.71 96.7 0.01 81.45 0"/></svg>