<svg id="Layer_1" data-name="Layer 1" xmlns="http://www.w3.org/2000/svg" viewBox="0 0 1280 800">
  <rect width="1280" height="800" fill="#fff"/>
  <rect y="0.99" width="156.06" height="799.01" fill="#ed1800"/>
  <polygon points="0 0 0 77.17 156.06 145.18 156.06 68.01 0 0" fill="#fff"/>
  <polygon points="0 147.03 0 224.21 156.06 292.21 156.06 215.04 0 147.03" fill="#fff"/>
  <polygon points="0 289.08 0 366.26 156.06 434.26 156.06 357.09 0 289.08" fill="#fff"/>
  <polygon points="0 434.26 0 511.43 156.06 579.44 156.06 502.27 0 434.26" fill="#fff"/>
  <polygon points="0 584.08 0 661.25 156.06 729.25 156.06 652.08 0 584.08" fill="#fff"/>
  <polygon points="151.7 800 0 733.89 0 800 151.7 800" fill="#fff"/>
  <line x1="156.06" y1="0.99" x2="156.06" y2="800" fill="none" stroke="#ed1800" stroke-miterlimit="10" stroke-width="10"/>
  <rect x="1123.94" y="0.99" width="156.06" height="799.01" fill="#ed1800"/>
  <polygon points="1280 0 1280 77.17 1123.94 145.18 1123.94 68.01 1280 0" fill="#fff"/>
  <polygon points="1280 147.03 1280 224.21 1123.94 292.21 1123.94 215.04 1280 147.03" fill="#fff"/>
  <polygon points="1280 289.08 1280 366.26 1123.94 434.26 1123.94 357.09 1280 289.08" fill="#fff"/>
  <polygon points="1280 434.26 1280 511.43 1123.94 579.44 1123.94 502.27 1280 434.26" fill="#fff"/>
  <polygon points="1280 584.08 1280 661.25 1123.94 729.25 1123.94 652.08 1280 584.08" fill="#fff"/>
  <polygon points="1128.3 800 1280 733.89 1280 800 1128.3 800" fill="#fff"/>
  <line x1="1123.94" y1="0.99" x2="1123.94" y2="800" fill="none" stroke="#ed1800" stroke-miterlimit="10" stroke-width="10"/>
  <path d="M640,325l85,150H555l85-150m0-5a5,5,0,0,0-4.35,2.53l-85,150A5,5,0,0,0,555,480H725a5,5,0,0,0,4.35-7.47l-85-150A5,5,0,0,0,640,320Z" fill="#ed1800"/>
  <path d="M640,325l85,150H555l85-150m0-5a5,5,0,0,0-4.35,2.53l-85,150A5,5,0,0,0,555,480H725a5,5,0,0,0,4.35-7.47l-85-150A5,5,0,0,0,640,320Z" fill="#ed1800"/>
  <path d="M642.52,430.56h-5a4.5,4.5,0,0,1-4.48-4.14l-3.72-46.57a4.48,4.48,0,0,1,4.47-4.85h12.5a4.48,4.48,0,0,1,4.47,4.85L647,426.42A4.5,4.5,0,0,1,642.52,430.56Z" fill="none" stroke="#ed1800" stroke-linecap="round" stroke-linejoin="round" stroke-width="5"/>
  <circle cx="640" cy="450" r="10" fill="none" stroke="#ed1800" stroke-linecap="round" stroke-linejoin="round" stroke-width="5"/>
</svg>
