<svg id="Layer_1" data-name="Layer 1" xmlns="http://www.w3.org/2000/svg" viewBox="0 0 120 120"><defs><style>.cls-1{fill:#00abe7;}.cls-2{fill:#f2f2f2;}</style></defs><title>Parameter Screen</title><circle class="cls-1" cx="60" cy="60" r="60"/><path class="cls-2" d="M94.09,68.8,104,64.4V55.6l-9.91-4.4h0a34.86,34.86,0,0,0-3.75-9.05l0,0L94.22,32,88,25.78,77.88,29.67l0,0a34.86,34.86,0,0,0-9-3.75v0L64.4,16H55.6l-4.4,9.91v0a34.86,34.86,0,0,0-9.05,3.75l0,0L32,25.78,25.78,32l3.89,10.12,0,0A34.86,34.86,0,0,0,26,51.2h0L16,55.6v8.8l9.91,4.4h0a34.86,34.86,0,0,0,3.75,9l0,0L25.78,88,32,94.22l10.12-3.89,0,0a34.86,34.86,0,0,0,9.05,3.75v0L55.6,104h8.8l4.4-9.91v0a34.86,34.86,0,0,0,9-3.75l0,0L88,94.22,94.22,88,90.33,77.88l0,0a34.86,34.86,0,0,0,3.75-9ZM60,71.73A11.73,11.73,0,1,1,71.73,60,11.73,11.73,0,0,1,60,71.73Z"/></svg>