<svg id="Layer_1" data-name="Layer 1" xmlns="http://www.w3.org/2000/svg" viewBox="0 0 120 120"><defs><style>.cls-1{fill:#00abe7;}.cls-2{fill:none;stroke:#fff;stroke-miterlimit:10;stroke-width:6px;}.cls-3{fill:#fff;}</style></defs><rect class="cls-1" width="120" height="120" rx="15"/><circle class="cls-2" cx="60" cy="60" r="32.5"/><rect class="cls-1" x="59.71" y="42.5" width="60.29" height="35"/><path class="cls-3" d="M108.18,59.12,90.52,48.92A1,1,0,0,0,89,49.8V56a1,1,0,0,1-1,1H60.74a1,1,0,0,0-1,1v4a1,1,0,0,0,1,1H88a1,1,0,0,1,1,1V70.2a1,1,0,0,0,1.53.88l17.66-10.19A1,1,0,0,0,108.18,59.12Z"/></svg>