<svg id="Layer_1" data-name="Layer 1" xmlns="http://www.w3.org/2000/svg" viewBox="0 0 120 120"><defs><style>.cls-1{fill:#00abe7;}.cls-2{fill:none;stroke:#fff;stroke-miterlimit:10;stroke-width:6px;}.cls-3{fill:#fff;}</style></defs><rect class="cls-1" width="120" height="120" rx="15"/><circle class="cls-2" cx="60" cy="60" r="32.5"/><rect class="cls-1" x="59.84" y="42.5" width="57.47" height="35"/><path class="cls-3" d="M60.22,60.88l17.66,10.2a1,1,0,0,0,1.54-.88V64a1,1,0,0,1,1-1h27.23a1,1,0,0,0,1-1V58a1,1,0,0,0-1-1H80.44a1,1,0,0,1-1-1V49.8a1,1,0,0,0-1.54-.88L60.23,59.11A1,1,0,0,0,60.22,60.88Z"/></svg>