<svg id="Layer_1" data-name="Layer 1" xmlns="http://www.w3.org/2000/svg" viewBox="0 0 120 120"><defs><style>.cls-1{fill:#00abe7;}.cls-2{fill:#fff;}.cls-3{fill:#ed1800;}.cls-4{fill:none;stroke:#122941;stroke-miterlimit:10;stroke-width:6px;}</style></defs><rect class="cls-1" y="0.54" width="120" height="120" rx="15"/><path class="cls-2" d="M67.21,39.53l5-2.23V32.85l-5-2.23h0A17.44,17.44,0,0,0,65.29,26l0,0,2-5.12-3.15-3.15-5.12,2,0,0a17.44,17.44,0,0,0-4.58-1.9v0l-2.23-5H47.73l-2.23,5v0a17.44,17.44,0,0,0-4.58,1.9l0,0-5.12-2L32.63,20.9l2,5.12,0,0a17.44,17.44,0,0,0-1.9,4.58h0l-5,2.23V37.3l5,2.23h0a17.44,17.44,0,0,0,1.9,4.58l0,0-2,5.12,3.15,3.15,5.12-2h0a17.44,17.44,0,0,0,4.58,1.9v0l2.23,5h4.45l2.23-5v0A17.44,17.44,0,0,0,59,50.41h0l5.12,2,3.15-3.15-2-5.12v0a17.44,17.44,0,0,0,1.9-4.58ZM50,41a5.94,5.94,0,1,1,5.94-5.94A5.93,5.93,0,0,1,50,41Z"/><path class="cls-2" d="M89.22,57.44l3.1-1.37V53.31l-3.1-1.37h0A10.7,10.7,0,0,0,88,49.11h0l1.22-3.17-2-1.94L84.15,45.2h0A11.26,11.26,0,0,0,81.3,44h0l-1.37-3.1H77.18L75.8,44h0A11,11,0,0,0,73,45.21h0L69.79,44l-1.94,1.94,1.21,3.17h0a11,11,0,0,0-1.17,2.83h0l-3.1,1.37v2.76l3.1,1.37h0a11.26,11.26,0,0,0,1.17,2.84h0l-1.21,3.16,1.94,2L73,64.18h0a10.7,10.7,0,0,0,2.83,1.17v0l1.38,3.1h2.75l1.37-3.1v0a10.9,10.9,0,0,0,2.84-1.17h0l3.16,1.22,2-2L88,60.29h0a10.9,10.9,0,0,0,1.17-2.84Zm-10.67.92a3.67,3.67,0,1,1,3.67-3.67A3.67,3.67,0,0,1,78.55,58.36Z"/><path class="cls-2" d="M71.22,77l-29.1.23a7.93,7.93,0,0,0-3.28.74L20.93,86.34a7.9,7.9,0,0,0-3.82,10.49l1.91,4.1a7.9,7.9,0,0,0,10.26,3.93l6.15-2.63a7.84,7.84,0,0,1,4.71-.47l24.11,5a7.93,7.93,0,0,0,4.94-.58l15.65-7.3a7.75,7.75,0,0,0,2.22-1.54c3.06-3,12.47-12.34,14.69-14.51,2.5-2.49,2.48-4.06,1-5.55-2.08-2.07-5.24.7-5.24.7l-14,10a7.84,7.84,0,0,1-5.13,1.46l-10.59-.72s-3.7,0-3.64-2c0-1.32,3.35-1.55,3.35-1.55L70,84.91a18.79,18.79,0,0,0,3.64-.81l5-1.67a3.65,3.65,0,0,0,2.27-4.73h0a3.66,3.66,0,0,0-4.58-2.2l-4,1.33A3.67,3.67,0,0,1,71.22,77Z"/><path class="cls-3" d="M103.69,79a4.51,4.51,0,0,0-1.32.92c-1.16,1.16-1.55,2.67-1,3.59l.4-.39C103.48,81.35,104,80.07,103.69,79Z"/><path class="cls-3" d="M79.94,81.65l-2.06.45a1.19,1.19,0,0,1-1.37-.79L76,79.57a1.71,1.71,0,0,1,.66-1.93l2.69-1.83S83,78.05,79.94,81.65Z"/><line class="cls-4" x1="16.22" y1="88.89" x2="25.06" y2="107.2"/></svg>