<svg id="Layer_1" data-name="Layer 1" xmlns="http://www.w3.org/2000/svg" viewBox="0 0 180 60"><defs><style>.cls-1{fill:#1aa9e1;}.cls-2{fill:none;stroke:#fff;stroke-miterlimit:10;stroke-width:2px;}.cls-3{fill:#fff;}.cls-4{fill:#f1f1f1;}</style></defs><title>Home Settings switch</title><rect class="cls-1" width="180" height="60" rx="30"/><path class="cls-2" d="M102.29,27.32h-24V22.27c0-.85-.45-1.2-1-.77L66.71,29.55"/><path class="cls-2" d="M113.29,30.45,102.72,38.5c-.56.43-1,.08-1-.77v-5h-24"/><path class="cls-3" d="M58.81,32.31l-20-20a2.08,2.08,0,0,0-2.92,0l-20,20a2.07,2.07,0,0,1-2.93,0h0a2.06,2.06,0,0,1,0-2.92L35.88,6.46a2.06,2.06,0,0,1,2.92,0L61.74,29.39a2.06,2.06,0,0,1,0,2.92h0A2.07,2.07,0,0,1,58.81,32.31Z"/><path class="cls-3" d="M35.89,16.47,20.71,31.4a2.06,2.06,0,0,0-.62,1.48v20A2.07,2.07,0,0,0,22.16,55h9a2.07,2.07,0,0,0,2.07-2.07V43.27a2.07,2.07,0,0,1,2.07-2.06h4.14a2.07,2.07,0,0,1,2.07,2.06v9.66A2.07,2.07,0,0,0,43.55,55h9a2.07,2.07,0,0,0,2.07-2.07v-20A2.06,2.06,0,0,0,54,31.4L38.79,16.47A2.07,2.07,0,0,0,35.89,16.47Z"/><path class="cls-4" d="M128.66,35.88l-3.82,4,1.73,4.15,5.54.13h0a17.77,17.77,0,0,0,3.55,3.54v0l.15,5.54L140,55l4-3.83v0a17.89,17.89,0,0,0,5,0v0L153,55l4.16-1.73.13-5.54v0a18,18,0,0,0,3.54-3.55h0l5.54-.15,1.72-4.16-3.83-4h0a17.89,17.89,0,0,0,0-5h0l3.82-4-1.73-4.16-5.54-.13h0A17.72,17.72,0,0,0,157.28,19v0l-.14-5.54L153,11.68l-4,3.83v0a17.89,17.89,0,0,0-5,0v0l-4-3.82-4.15,1.73L135.63,19v0a17.72,17.72,0,0,0-3.54,3.54h0l-5.54.14-1.72,4.16,3.83,4h0a17.89,17.89,0,0,0,0,5Zm15.51-8.08a6,6,0,1,1-3.23,7.85A6,6,0,0,1,144.17,27.8Z"/><circle class="cls-1" cx="146.48" cy="33.34" r="7.87"/></svg>