<?xml version="1.0" encoding="UTF-8" standalone="no"?>
<svg
   width="100%"
   height="100%"
   viewBox="0 0 206 206"
   version="1.1"
   xml:space="preserve"
   style="fill-rule:evenodd;clip-rule:evenodd;stroke-linejoin:round;stroke-miterlimit:2;"
   id="svg430"
   sodipodi:docname="IconLogout.svg"
   inkscape:version="1.2.1 (9c6d41e410, 2022-07-14)"
   xmlns:inkscape="http://www.inkscape.org/namespaces/inkscape"
   xmlns:sodipodi="http://sodipodi.sourceforge.net/DTD/sodipodi-0.dtd"
   xmlns="http://www.w3.org/2000/svg"
   xmlns:svg="http://www.w3.org/2000/svg"><defs
     id="defs434" /><sodipodi:namedview
     id="namedview432"
     pagecolor="#505050"
     bordercolor="#eeeeee"
     borderopacity="1"
     inkscape:showpageshadow="0"
     inkscape:pageopacity="0"
     inkscape:pagecheckerboard="0"
     inkscape:deskcolor="#505050"
     showgrid="false"
     inkscape:zoom="4.184466"
     inkscape:cx="82.089327"
     inkscape:cy="103"
     inkscape:window-width="1920"
     inkscape:window-height="1017"
     inkscape:window-x="2552"
     inkscape:window-y="341"
     inkscape:window-maximized="1"
     inkscape:current-layer="svg430" /><path
     d="M138.103,108.999l-35.998,0l0,-12.5l35.998,0l0,-17.086c0,-0.374 0.212,-0.716 0.547,-0.884c0.334,-0.167 0.735,-0.131 1.034,0.094c5.874,4.405 26.349,19.761 31.154,23.365c0.24,0.18 0.381,0.462 0.381,0.761c-0,0.3 -0.141,0.582 -0.381,0.762c-4.814,3.61 -25.351,19.013 -31.184,23.388c-0.294,0.22 -0.687,0.256 -1.015,0.092c-0.328,-0.165 -0.536,-0.5 -0.536,-0.867c0,-4.85 0,-17.125 0,-17.125Z"
     style="fill:#fff;"
     id="path426" /><path
     d="M163.545,133.562c0.359,-0.001 0.692,0.186 0.879,0.492c0.187,0.306 0.2,0.688 0.036,1.006c-11.659,22.191 -34.934,37.342 -61.72,37.342c-38.448,0 -69.663,-31.215 -69.663,-69.662c0,-38.448 31.215,-69.663 69.663,-69.663c26.786,0 50.061,15.151 61.716,37.344c0.164,0.317 0.151,0.698 -0.035,1.003c-0.186,0.305 -0.518,0.491 -0.876,0.491c-3.173,0.003 -9.924,0.003 -11.906,0.003c-0.347,-0.001 -0.67,-0.177 -0.859,-0.468c-10.238,-15.676 -27.938,-26.044 -48.04,-26.044c-31.644,0 -57.334,25.69 -57.334,57.334c0,31.643 25.69,57.333 57.334,57.333c20.102,0 37.802,-10.368 48.039,-26.044c0.189,-0.291 0.513,-0.466 0.86,-0.466c1.982,-0.001 8.733,-0.001 11.906,-0.001Z"
     style="fill:#fff;"
     id="path428" /></svg>
