<?xml version="1.0" encoding="UTF-8" standalone="no"?>
<svg
   id="Layer_1"
   data-name="Layer 1"
   viewBox="0 0 100 100"
   version="1.1"
   sodipodi:docname="IconHome.svg"
   inkscape:version="1.2.1 (9c6d41e410, 2022-07-14)"
   width="100"
   height="100"
   xmlns:inkscape="http://www.inkscape.org/namespaces/inkscape"
   xmlns:sodipodi="http://sodipodi.sourceforge.net/DTD/sodipodi-0.dtd"
   xmlns="http://www.w3.org/2000/svg"
   xmlns:svg="http://www.w3.org/2000/svg"
   xmlns:rdf="http://www.w3.org/1999/02/22-rdf-syntax-ns#"
   xmlns:cc="http://creativecommons.org/ns#"
   xmlns:dc="http://purl.org/dc/elements/1.1/">
  <sodipodi:namedview
     id="namedview7989"
     pagecolor="#505050"
     bordercolor="#eeeeee"
     borderopacity="1"
     inkscape:showpageshadow="0"
     inkscape:pageopacity="0"
     inkscape:pagecheckerboard="0"
     inkscape:deskcolor="#505050"
     showgrid="false"
     inkscape:zoom="6.7222222"
     inkscape:cx="76.983471"
     inkscape:cy="30.049587"
     inkscape:window-width="1920"
     inkscape:window-height="1017"
     inkscape:window-x="2552"
     inkscape:window-y="341"
     inkscape:window-maximized="1"
     inkscape:current-layer="Layer_1" />
  <defs
     id="defs7970">
    <style
       id="style7968">.cls-1{fill:#1aa9e1;}.cls-2{fill:none;stroke:#fff;stroke-miterlimit:10;stroke-width:2px;}.cls-3{fill:#fff;}.cls-4{fill:#f1f1f1;}</style>
  </defs>
  <title
     id="title7972">Home Settings switch</title>
  <g
     id="g8125"
     transform="matrix(1.2001571,0,0,1.2208341,5.1741329,12.854126)">
    <path
       class="cls-3"
       d="m 58.81,32.31 -20,-20 a 2.08,2.08 0 0 0 -2.92,0 l -20,20 a 2.07,2.07 0 0 1 -2.93,0 v 0 a 2.06,2.06 0 0 1 0,-2.92 L 35.88,6.46 a 2.06,2.06 0 0 1 2.92,0 l 22.94,22.93 a 2.06,2.06 0 0 1 0,2.92 v 0 a 2.07,2.07 0 0 1 -2.93,0 z"
       id="path7980" />
    <path
       class="cls-3"
       d="M 35.89,16.47 20.71,31.4 a 2.06,2.06 0 0 0 -0.62,1.48 v 20 A 2.07,2.07 0 0 0 22.16,55 h 9 a 2.07,2.07 0 0 0 2.07,-2.07 v -9.66 a 2.07,2.07 0 0 1 2.07,-2.06 h 4.14 a 2.07,2.07 0 0 1 2.07,2.06 v 9.66 A 2.07,2.07 0 0 0 43.55,55 h 9 a 2.07,2.07 0 0 0 2.07,-2.07 v -20 A 2.06,2.06 0 0 0 54,31.4 L 38.79,16.47 a 2.07,2.07 0 0 0 -2.9,0 z"
       id="path7982" />
  </g>
  <metadata
     id="metadata8108">
    <rdf:RDF>
      <cc:Work
         rdf:about="">
        <dc:title>Home Settings switch</dc:title>
      </cc:Work>
    </rdf:RDF>
  </metadata>
</svg>
