<?xml version="1.0" encoding="UTF-8" standalone="no"?>
<svg
   id="Layer_1"
   data-name="Layer 1"
   viewBox="0 0 120 120"
   version="1.1"
   sodipodi:docname="IconLogin.svg"
   inkscape:version="1.2.1 (9c6d41e410, 2022-07-14)"
   xmlns:inkscape="http://www.inkscape.org/namespaces/inkscape"
   xmlns:sodipodi="http://sodipodi.sourceforge.net/DTD/sodipodi-0.dtd"
   xmlns="http://www.w3.org/2000/svg"
   xmlns:svg="http://www.w3.org/2000/svg">
  <sodipodi:namedview
     id="namedview153"
     pagecolor="#505050"
     bordercolor="#eeeeee"
     borderopacity="1"
     inkscape:showpageshadow="0"
     inkscape:pageopacity="0"
     inkscape:pagecheckerboard="0"
     inkscape:deskcolor="#505050"
     showgrid="false"
     inkscape:zoom="7.1833333"
     inkscape:cx="47.819026"
     inkscape:cy="60"
     inkscape:window-width="2544"
     inkscape:window-height="1361"
     inkscape:window-x="26"
     inkscape:window-y="26"
     inkscape:window-maximized="0"
     inkscape:current-layer="Layer_1" />
  <defs
     id="defs142">
    <style
       id="style140">.cls-1{fill:#00abe7;}.cls-2{fill:none;stroke:#fff;stroke-miterlimit:10;stroke-width:6px;}.cls-3{fill:#fff;}</style>
  </defs>
  <circle
     class="cls-2"
     cx="60"
     cy="60"
     r="32.5"
     id="circle146" />
  <rect
     class="cls-1"
     x="59.84"
     y="42.5"
     width="48.978123"
     height="35"
     id="rect148"
     style="stroke-width:0;stroke:none;stroke-dasharray:none" />
  <path
     class="cls-3"
     d="M60.22,60.88l17.66,10.2a1,1,0,0,0,1.54-.88V64a1,1,0,0,1,1-1h27.23a1,1,0,0,0,1-1V58a1,1,0,0,0-1-1H80.44a1,1,0,0,1-1-1V49.8a1,1,0,0,0-1.54-.88L60.23,59.11A1,1,0,0,0,60.22,60.88Z"
     id="path150" />
</svg>
