<?xml version="1.0" encoding="UTF-8" standalone="no"?>
<svg
   id="Layer_1"
   data-name="Layer 1"
   viewBox="0 0 120 120"
   version="1.1"
   sodipodi:docname="IconLogout.svg"
   inkscape:version="1.2.1 (9c6d41e410, 2022-07-14)"
   xmlns:inkscape="http://www.inkscape.org/namespaces/inkscape"
   xmlns:sodipodi="http://sodipodi.sourceforge.net/DTD/sodipodi-0.dtd"
   xmlns="http://www.w3.org/2000/svg"
   xmlns:svg="http://www.w3.org/2000/svg">
  <sodipodi:namedview
     id="namedview15"
     pagecolor="#505050"
     bordercolor="#eeeeee"
     borderopacity="1"
     inkscape:showpageshadow="0"
     inkscape:pageopacity="0"
     inkscape:pagecheckerboard="0"
     inkscape:deskcolor="#505050"
     showgrid="false"
     inkscape:zoom="7.1833333"
     inkscape:cx="35.707657"
     inkscape:cy="60"
     inkscape:window-width="2560"
     inkscape:window-height="1377"
     inkscape:window-x="-8"
     inkscape:window-y="-8"
     inkscape:window-maximized="1"
     inkscape:current-layer="Layer_1" />
  <defs
     id="defs4">
    <style
       id="style2">.cls-1{fill:#00abe7;}.cls-2{fill:none;stroke:#fff;stroke-miterlimit:10;stroke-width:6px;}.cls-3{fill:#fff;}</style>
  </defs>
  <circle
     class="cls-2"
     cx="60"
     cy="60"
     r="32.5"
     id="circle8" />
  <rect
     class="cls-1"
     x="59.709999"
     y="42.5"
     width="49.29232"
     height="35"
     id="rect10"
     style="stroke-width:0;fill:#00abe7;fill-opacity:1;stroke:none;stroke-dasharray:none" />
  <path
     class="cls-3"
     d="M108.18,59.12,90.52,48.92A1,1,0,0,0,89,49.8V56a1,1,0,0,1-1,1H60.74a1,1,0,0,0-1,1v4a1,1,0,0,0,1,1H88a1,1,0,0,1,1,1V70.2a1,1,0,0,0,1.53.88l17.66-10.19A1,1,0,0,0,108.18,59.12Z"
     id="path12" />
</svg>
