<?xml version="1.0" encoding="UTF-8" standalone="no"?>
<svg
   id="Layer_1"
   data-name="Layer 1"
   viewBox="0 0 100 100"
   version="1.1"
   sodipodi:docname="IconManual.svg"
   width="100"
   height="100"
   inkscape:version="1.2.1 (9c6d41e410, 2022-07-14)"
   xmlns:inkscape="http://www.inkscape.org/namespaces/inkscape"
   xmlns:sodipodi="http://sodipodi.sourceforge.net/DTD/sodipodi-0.dtd"
   xmlns="http://www.w3.org/2000/svg"
   xmlns:svg="http://www.w3.org/2000/svg">
  <g
     id="g8278"
     transform="matrix(0.66484286,0,0,0.62712737,11.04701,11.953957)">
    <path
       class="cls-2"
       d="m 67.21,39.53 5,-2.23 v -4.45 l -5,-2.23 v 0 A 17.44,17.44 0 0 0 65.29,26 v 0 l 2,-5.12 -3.15,-3.15 -5.12,2 v 0 a 17.44,17.44 0 0 0 -4.58,-1.9 v 0 l -2.23,-5 h -4.48 l -2.23,5 v 0 a 17.44,17.44 0 0 0 -4.58,1.9 v 0 l -5.12,-2 -3.17,3.17 2,5.12 v 0 a 17.44,17.44 0 0 0 -1.9,4.58 v 0 l -5,2.23 v 4.47 l 5,2.23 v 0 a 17.44,17.44 0 0 0 1.9,4.58 v 0 l -2,5.12 3.15,3.15 5.12,-2 v 0 a 17.44,17.44 0 0 0 4.58,1.9 v 0 l 2.23,5 h 4.45 l 2.23,-5 v 0 A 17.44,17.44 0 0 0 59,50.41 v 0 l 5.12,2 3.15,-3.15 -2,-5.12 v 0 a 17.44,17.44 0 0 0 1.9,-4.58 z M 50,41 A 5.94,5.94 0 1 1 55.94,35.06 5.93,5.93 0 0 1 50,41 Z"
       id="path8142" />
    <path
       class="cls-2"
       d="m 89.22,57.44 3.1,-1.37 v -2.76 l -3.1,-1.37 v 0 A 10.7,10.7 0 0 0 88,49.11 v 0 l 1.22,-3.17 -2,-1.94 -3.07,1.2 v 0 A 11.26,11.26 0 0 0 81.3,44 v 0 L 79.93,40.9 H 77.18 L 75.8,44 v 0 A 11,11 0 0 0 73,45.21 v 0 L 69.79,44 l -1.94,1.94 1.21,3.17 v 0 a 11,11 0 0 0 -1.17,2.83 v 0 l -3.1,1.37 v 2.76 l 3.1,1.37 v 0 a 11.26,11.26 0 0 0 1.17,2.84 v 0 l -1.21,3.16 1.94,2 3.21,-1.26 v 0 a 10.7,10.7 0 0 0 2.83,1.17 v 0 l 1.38,3.1 h 2.75 l 1.37,-3.1 v 0 a 10.9,10.9 0 0 0 2.84,-1.17 v 0 l 3.16,1.22 2,-2 L 88,60.29 v 0 a 10.9,10.9 0 0 0 1.17,-2.84 z m -10.67,0.92 a 3.67,3.67 0 1 1 3.67,-3.67 3.67,3.67 0 0 1 -3.67,3.67 z"
       id="path8144" />
    <path
       class="cls-2"
       d="m 71.22,77 -29.1,0.23 a 7.93,7.93 0 0 0 -3.28,0.74 l -17.91,8.37 a 7.9,7.9 0 0 0 -3.82,10.49 l 1.91,4.1 a 7.9,7.9 0 0 0 10.26,3.93 l 6.15,-2.63 a 7.84,7.84 0 0 1 4.71,-0.47 l 24.11,5 a 7.93,7.93 0 0 0 4.94,-0.58 l 15.65,-7.3 a 7.75,7.75 0 0 0 2.22,-1.54 c 3.06,-3 12.47,-12.34 14.69,-14.51 2.5,-2.49 2.48,-4.06 1,-5.55 -2.08,-2.07 -5.24,0.7 -5.24,0.7 l -14,10 a 7.84,7.84 0 0 1 -5.13,1.46 L 67.79,88.72 c 0,0 -3.7,0 -3.64,-2 0,-1.32 3.35,-1.55 3.35,-1.55 L 70,84.91 a 18.79,18.79 0 0 0 3.64,-0.81 l 5,-1.67 a 3.65,3.65 0 0 0 2.27,-4.73 v 0 a 3.66,3.66 0 0 0 -4.58,-2.2 l -4,1.33 A 3.67,3.67 0 0 1 71.22,77 Z"
       id="path8146" />
    <line
       class="cls-4"
       x1="16.219999"
       y1="88.889999"
       x2="25.059999"
       y2="107.2"
       id="line8152" />
  </g>
  <sodipodi:namedview
     id="namedview8155"
     pagecolor="#505050"
     bordercolor="#eeeeee"
     borderopacity="1"
     inkscape:showpageshadow="0"
     inkscape:pageopacity="0"
     inkscape:pagecheckerboard="0"
     inkscape:deskcolor="#505050"
     showgrid="false"
     inkscape:zoom="7.1833333"
     inkscape:cx="47.819026"
     inkscape:cy="60"
     inkscape:window-width="1920"
     inkscape:window-height="1017"
     inkscape:window-x="2552"
     inkscape:window-y="341"
     inkscape:window-maximized="1"
     inkscape:current-layer="Layer_1" />
  <defs
     id="defs8138">
    <style
       id="style8136">.cls-1{fill:#00abe7;}.cls-2{fill:#fff;}.cls-3{fill:#ed1800;}.cls-4{fill:none;stroke:#122941;stroke-miterlimit:10;stroke-width:6px;}</style>
  </defs>
</svg>
