<?xml version="1.0" encoding="UTF-8" standalone="no"?>
<svg
   id="Layer_1"
   data-name="Layer 1"
   viewBox="0 0 1280 800"
   version="1.1"
   sodipodi:docname="Emergency Stop Active 1280 x 800 Red Filled.svg"
   inkscape:version="1.2.1 (9c6d41e410, 2022-07-14)"
   xmlns:inkscape="http://www.inkscape.org/namespaces/inkscape"
   xmlns:sodipodi="http://sodipodi.sourceforge.net/DTD/sodipodi-0.dtd"
   xmlns="http://www.w3.org/2000/svg"
   xmlns:svg="http://www.w3.org/2000/svg">
  <defs
     id="defs47" />
  <sodipodi:namedview
     id="namedview45"
     pagecolor="#505050"
     bordercolor="#eeeeee"
     borderopacity="1"
     inkscape:showpageshadow="0"
     inkscape:pageopacity="0"
     inkscape:pagecheckerboard="0"
     inkscape:deskcolor="#505050"
     showgrid="false"
     inkscape:zoom="0.9453125"
     inkscape:cx="547.43802"
     inkscape:cy="399.86777"
     inkscape:window-width="2560"
     inkscape:window-height="1377"
     inkscape:window-x="-8"
     inkscape:window-y="-8"
     inkscape:window-maximized="1"
     inkscape:current-layer="Layer_1" />
  <rect
     width="1280"
     height="800"
     fill="#fff"
     id="rect2"
     style="fill:#ffffff;fill-opacity:1" />
  <rect
     y="0.99"
     width="156.06"
     height="799.01"
     fill="#ed1800"
     id="rect4" />
  <polygon
     points="0 0 0 77.17 156.06 145.18 156.06 68.01 0 0"
     fill="#fff"
     id="polygon6" />
  <polygon
     points="0 147.03 0 224.21 156.06 292.21 156.06 215.04 0 147.03"
     fill="#fff"
     id="polygon8" />
  <polygon
     points="0 289.08 0 366.26 156.06 434.26 156.06 357.09 0 289.08"
     fill="#fff"
     id="polygon10" />
  <polygon
     points="0 434.26 0 511.43 156.06 579.44 156.06 502.27 0 434.26"
     fill="#fff"
     id="polygon12" />
  <polygon
     points="0 584.08 0 661.25 156.06 729.25 156.06 652.08 0 584.08"
     fill="#fff"
     id="polygon14" />
  <polygon
     points="151.7 800 0 733.89 0 800 151.7 800"
     fill="#fff"
     id="polygon16" />
  <line
     x1="156.06"
     y1="0.99"
     x2="156.06"
     y2="800"
     fill="none"
     stroke="#ed1800"
     stroke-miterlimit="10"
     stroke-width="10"
     id="line18" />
  <rect
     x="1123.94"
     y="0.99"
     width="156.06"
     height="799.01"
     fill="#ed1800"
     id="rect20" />
  <polygon
     points="1280 0 1280 77.17 1123.94 145.18 1123.94 68.01 1280 0"
     fill="#fff"
     id="polygon22" />
  <polygon
     points="1280 147.03 1280 224.21 1123.94 292.21 1123.94 215.04 1280 147.03"
     fill="#fff"
     id="polygon24" />
  <polygon
     points="1280 289.08 1280 366.26 1123.94 434.26 1123.94 357.09 1280 289.08"
     fill="#fff"
     id="polygon26" />
  <polygon
     points="1280 434.26 1280 511.43 1123.94 579.44 1123.94 502.27 1280 434.26"
     fill="#fff"
     id="polygon28" />
  <polygon
     points="1280 584.08 1280 661.25 1123.94 729.25 1123.94 652.08 1280 584.08"
     fill="#fff"
     id="polygon30" />
  <polygon
     points="1128.3 800 1280 733.89 1280 800 1128.3 800"
     fill="#fff"
     id="polygon32" />
  <line
     x1="1123.94"
     y1="0.99"
     x2="1123.94"
     y2="800"
     fill="none"
     stroke="#ed1800"
     stroke-miterlimit="10"
     stroke-width="10"
     id="line34" />
  <path
     d="M640,325l85,150H555l85-150m0-5a5,5,0,0,0-4.35,2.53l-85,150A5,5,0,0,0,555,480H725a5,5,0,0,0,4.35-7.47l-85-150A5,5,0,0,0,640,320Z"
     fill="#ed1800"
     id="path36" />
  <path
     d="M640,325l85,150H555l85-150m0-5a5,5,0,0,0-4.35,2.53l-85,150A5,5,0,0,0,555,480H725a5,5,0,0,0,4.35-7.47l-85-150A5,5,0,0,0,640,320Z"
     fill="#ed1800"
     id="path38" />
  <path
     d="M642.52,430.56h-5a4.5,4.5,0,0,1-4.48-4.14l-3.72-46.57a4.48,4.48,0,0,1,4.47-4.85h12.5a4.48,4.48,0,0,1,4.47,4.85L647,426.42A4.5,4.5,0,0,1,642.52,430.56Z"
     fill="none"
     stroke="#ed1800"
     stroke-linecap="round"
     stroke-linejoin="round"
     stroke-width="5"
     id="path40" />
  <circle
     cx="640"
     cy="450"
     r="10"
     fill="none"
     stroke="#ed1800"
     stroke-linecap="round"
     stroke-linejoin="round"
     stroke-width="5"
     id="circle42" />
</svg>
