<svg id="Layer_1" data-name="Layer 1" xmlns="http://www.w3.org/2000/svg" viewBox="0 0 1280 800"><defs><style>.cls-1{fill:#122941;}.cls-2{fill:#1daae3;}.cls-3{fill:#fff;}.cls-4{fill:#f2f2f2;}.cls-5{fill:#d8e8f9;}.cls-6{fill:#d0d4d9;}.cls-7{fill:#375575;}.cls-8{fill:none;stroke:#fff;stroke-linejoin:round;stroke-width:5px;}.cls-9{fill:#122940;}</style></defs><title>Background</title><path class="cls-1" d="M790,750h0a36,36,0,0,0-36-36H526a36,36,0,0,0-36,36h0a36,36,0,0,1-36,36H0v15H1280V786H826A36,36,0,0,1,790,750Z"/><circle class="cls-2" cx="74.36" cy="311" r="60"/><polygon class="cls-3" points="94.63 311.11 68.65 285.13 42.68 311.11 39.36 307.79 68.65 278.5 97.94 307.79 94.63 311.11"/><polygon class="cls-3" points="68.65 289.88 49.11 309.11 49.11 335.16 63.96 335.16 63.96 319.53 73.34 319.53 73.34 335.16 88.19 335.16 88.19 309.11 68.65 289.88"/><path class="cls-2" d="M97.46,340.37c4.85,0,8.78-3.66,8.78-8.17S102.31,324,97.46,324H89.1"/><path class="cls-3" d="M97.46,343.5v-6.26c3.12,0,5.65-2.26,5.65-5s-2.53-5-5.65-5H89.1v-6.26h8.36c6.56,0,11.9,5.07,11.9,11.29S104,343.5,97.46,343.5Z"/><polygon class="cls-2" points="91.83 312.88 72.51 324.04 91.83 335.2 91.83 312.88"/><polygon class="cls-3" points="91.83 314.69 75.64 324.04 91.83 333.39 91.83 314.69"/><rect class="cls-3" x="49.11" y="337.24" width="48.35" height="6.25"/><circle class="cls-2" cx="75" cy="161" r="60"/><polyline class="cls-4" points="103.21 161 76.21 134 66.61 134 93.61 161"/><polyline class="cls-5" points="93.61 161 66.61 188 76.21 188 103.21 161"/><polyline class="cls-5" points="72.51 161 45.51 188 55.11 188 82.11 161"/><polyline class="cls-4" points="82.11 161 55.11 134 45.51 134 72.51 161"/><circle class="cls-2" cx="74.36" cy="461" r="60"/><path class="cls-6" d="M102.56,470.89l-.6,1.56h0l-3.09,8h0l-4.51,11.74c3.88,0,7-7.29,7-7.29l1.16-3h0l3.09-8h0l3.06-8,.18-.15,2.91-7.42-.27.22.25-.65L105.6,463l-.2.52"/><path class="cls-1" d="M128.27,455.11h0c-.16-4.46-2-6.14-3.06-6.74a1.38,1.38,0,0,0-1.4.27l-12,9.71-2.91,7.42,3.15-2.55a9.54,9.54,0,0,1,6.87-.74l.09,0a7.35,7.35,0,0,0,9.27-7.38Zm-3.56,5c-2.27,1.83-5.26,1.91-6.67.17a3.66,3.66,0,0,1-.61-3.15c4.42-2.66,5.81-4.75,5.81-4.76h0l.53,0,0,0a3.47,3.47,0,0,1,2.46,1.24C127.67,455.34,127,458.25,124.71,460.08Z"/><path class="cls-1" d="M115.63,439.83s-3.44-1.38-3.79-1.46h-.07c-3-.82-6.75,2.51-8.78,7.8-2.11,5.48-1.41,10.68,1.58,11.83a3.56,3.56,0,0,0,.56.15,1.73,1.73,0,0,1,.87,1.09,6.3,6.3,0,0,1,.28,1.95h0L105.6,463l6.18-5.07.52-1.34,5.16-13.43A2.57,2.57,0,0,0,115.63,439.83Zm-2.87,5.51a59.39,59.39,0,0,0-3.11,8.05,1.09,1.09,0,0,1-.19.37c-1.5,1.89-3.13,2.78-4.17,2.38-1.64-.63-2.23-4.58-.44-9.24s4.87-7.2,6.52-6.57c1,.41,1.66,2.18,1.5,4.62A1.09,1.09,0,0,1,112.76,445.34Z"/><circle class="cls-7" cx="106.49" cy="465.34" r="1.03"/><line class="cls-8" x1="52.07" y1="501" x2="96.66" y2="421"/><rect class="cls-3" x="48.07" y="419.5" width="8" height="83"/><path class="cls-2" d="M54.57,421v80h-5V421h5m3-3h-11v86h11V418Z"/><rect class="cls-3" x="94.16" y="421" width="5" height="80"/><polygon class="cls-3" points="62.83 416 52.07 430.75 41.31 416 62.83 416"/><circle class="cls-3" cx="96.66" cy="501" r="6"/><path class="cls-6" d="M105.4,463.5l-8,6.47h0L95,471.89l-.35.32-3.05,2.47h0l-2.52,2.05s-5.92,5.22-4.77,8.94l9.78-7.91h0l6.71-5.43v0l1.75-1.41"/><rect class="cls-2" x="91.16" y="416.12" width="3" height="29.25"/><rect class="cls-2" x="101.09" y="410.25" width="2" height="19.5" transform="translate(-317.91 522.09) rotate(-90)"/><path class="cls-9" d="M0,0H150a0,0,0,0,1,0,0V615a75,75,0,0,1-75,75H0a0,0,0,0,1,0,0V0A0,0,0,0,1,0,0Z"/><path class="cls-9" d="M1130,1h150a0,0,0,0,1,0,0V691a0,0,0,0,1,0,0h-75a75,75,0,0,1-75-75V1A0,0,0,0,1,1130,1Z"/></svg>