<svg id="Layer_1" data-name="Layer 1" xmlns="http://www.w3.org/2000/svg" viewBox="0 0 120 120"><defs><style>.cls-1{fill:#00abe7;}.cls-2{fill:#122941;}.cls-3{fill:#fff;}.cls-4{fill:#d8e8f8;}.cls-5{fill:#ed1800;}</style></defs><title>Continue Sewing </title><circle class="cls-1" cx="60" cy="60.63" r="60"/><path class="cls-2" d="M98.84,54.89l-61.5-35.5a3.5,3.5,0,0,0-5.25,3v71a3.5,3.5,0,0,0,5.25,3L98.84,61A3.5,3.5,0,0,0,98.84,54.89Z"/><path class="cls-3" d="M99.5,57.89,37.39,22.39a3.53,3.53,0,0,0-5.3,3v71a3.53,3.53,0,0,0,5.3,3L99.5,64A3.48,3.48,0,0,0,99.5,57.89Z"/><path class="cls-4" d="M98.84,56.89l-61.5-35.5a3.5,3.5,0,0,0-5.25,3v71a3.5,3.5,0,0,0,5.25,3L98.84,63A3.5,3.5,0,0,0,98.84,56.89Z"/><path class="cls-5" d="M43.75,60.62h5v1h-5Zm8,0h5v1h-5Zm8,0h5v1h-5Zm8,0h5v1h-5Zm-32-.64.59-.81a7.59,7.59,0,0,0,4.38,1.45v1A8.52,8.52,0,0,1,35.78,60ZM32.25,53v-.38h1V53a7.52,7.52,0,0,0,1.2,4.1l-.84.54A8.55,8.55,0,0,1,32.25,53Z"/></svg>