<svg id="Layer_1" data-name="Layer 1" xmlns="http://www.w3.org/2000/svg" viewBox="0 0 120 120"><defs><style>.cls-1{fill:#00abe7;}.cls-2{fill:#f2f2f2;}.cls-3{fill:#333a41;}.cls-4,.cls-7{fill:#485a6d;}.cls-4{opacity:0.95;}.cls-5{fill:#b1d0f0;}.cls-6{fill:#d8e8f8;}.cls-8{fill:#e6e6e6;}</style></defs><title>Gearing on</title><circle class="cls-1" cx="60" cy="60" r="60"/><path class="cls-2" d="M60.32,96.34s-.29-31.21-4.4-47c-8.45-2.31-22.37-4.86-43.7-5.53V69.5H32.88V96.34ZM48.14,75.67A3.89,3.89,0,1,1,52,79.56a3.89,3.89,0,1,1-3.89,3.89A3.89,3.89,0,0,1,52,79.56,3.89,3.89,0,0,1,48.14,75.67Zm-14-1.33H45V77h-.81V91.94a1.07,1.07,0,0,1-2.14,0V77H38V91.94a1.08,1.08,0,0,1-2.15,0V77h-1.7Z"/><path class="cls-3" d="M55.92,49.3c4.11,15.83,4.4,47,4.4,47h6.61V53.39S63.78,51.45,55.92,49.3Z"/><polygon class="cls-4" points="66.93 39.74 66.93 47.89 66.93 52.9 66.93 71.42 69.57 71.42 69.57 39.74 66.93 39.74"/><path class="cls-5" d="M63.53,37.28H12.22v6.49c21.33.67,35.25,3.22,43.7,5.53,7.86,2.15,11,4.09,11,4.09V40.23A3.12,3.12,0,0,0,63.53,37.28Z"/><path class="cls-6" d="M70.27,39.74h-.7V71.42c2.65,0,2.65-1.47,2.65-1.47V42.27C72.22,40.28,71.06,39.83,70.27,39.74Z"/><path class="cls-7" d="M55.92,75.67A3.89,3.89,0,1,0,52,79.56,3.89,3.89,0,0,0,55.92,75.67Z"/><circle class="cls-7" cx="52.03" cy="83.45" r="3.89"/><path class="cls-3" d="M35.85,91.94a1.08,1.08,0,0,0,2.15,0V77H35.85Z"/><path class="cls-3" d="M42,91.94a1.07,1.07,0,0,0,2.14,0V77H42Z"/><polygon class="cls-7" points="34.15 77 35.85 77 38 77 42 77 44.14 77 44.95 77 44.95 74.34 34.15 74.34 34.15 77"/><path class="cls-8" d="M87.68,39a8.28,8.28,0,0,0-1-.36l.25-2-3.06-.39-.25,1.95a8.36,8.36,0,0,0-2.11.39l-.94-1.71-2.7,1.49,1,1.71a8.17,8.17,0,0,0-1.49,1.56l-1.75-.82-1.31,2.78,1.75.83a8.23,8.23,0,0,0-.25,2.14L73.83,47l.58,3,1.91-.36a8.22,8.22,0,0,0,1.05,1.87L76,52.92,78.27,55l1.35-1.43a9.32,9.32,0,0,0,.92.55,7.74,7.74,0,0,0,1,.36l-.25,2,3.06.38.24-2a8.51,8.51,0,0,0,2.12-.38l.93,1.7,2.7-1.48L89.42,53a8.18,8.18,0,0,0,1.48-1.57l1.76.83L94,49.49l-1.76-.82a8.3,8.3,0,0,0,.26-2.14l1.92-.37-.58-3-1.91.37a8.39,8.39,0,0,0-1.05-1.87l1.34-1.44L90,38.08,88.6,39.52A7.71,7.71,0,0,0,87.68,39ZM79,44.82l3.82,1.79a1.27,1.27,0,0,0,.26.72L81.3,51.15A5.38,5.38,0,0,1,79,44.82Zm9.69,4.55a5.37,5.37,0,0,1-6.33,2.28l1.79-3.81a1.43,1.43,0,0,0,.72-.26Zm-4.06-2.56a.59.59,0,1,1-.28-.79A.6.6,0,0,1,84.64,46.81ZM89.2,48.3l-3.81-1.79a1.43,1.43,0,0,0-.26-.73L86.92,42A5.37,5.37,0,0,1,89.2,48.3Zm-5.14-3a1.27,1.27,0,0,0-.73.26l-3.81-1.79a5.37,5.37,0,0,1,6.33-2.29Z"/><path class="cls-8" d="M88.69,69.56a6.54,6.54,0,0,0,.53-.65l1.35.69,1.08-2.12-1.35-.69a6.46,6.46,0,0,0,.27-1.63l1.49-.24-.37-2.35-1.5.24a6.28,6.28,0,0,0-.74-1.49l1.06-1.06-1.69-1.68-1.06,1.06a5.73,5.73,0,0,0-1.48-.75l.23-1.49L84.16,57l-.23,1.48a7,7,0,0,0-1.64.27l-.69-1.35-2.12,1.08.69,1.36a5.2,5.2,0,0,0-.64.52A5.38,5.38,0,0,0,79,61l-1.36-.69-1.08,2.12,1.36.69a6.48,6.48,0,0,0-.28,1.63L76.16,65l.37,2.35L78,67.14a6.72,6.72,0,0,0,.75,1.49l-1.06,1.06,1.68,1.68,1.06-1.06a6,6,0,0,0,1.49.75l-.24,1.49,2.35.37.24-1.48a7.11,7.11,0,0,0,1.64-.27l.69,1.35,2.12-1.08-.69-1.36A5.2,5.2,0,0,0,88.69,69.56Zm-2-7.83L84.4,64a1,1,0,0,0-.59,0l-2.3-2.3A4.15,4.15,0,0,1,86.71,61.73Zm-5.85,5.85a4.17,4.17,0,0,1,0-5.21l2.31,2.31a.86.86,0,0,0,0,.59Zm2.93-2.28a.46.46,0,0,1,0-.65.45.45,0,0,1,.64,0,.46.46,0,0,1,0,.65A.45.45,0,0,1,83.79,65.3Zm-2.28,2.92,2.3-2.3a1,1,0,0,0,.59,0l2.31,2.3A4.15,4.15,0,0,1,81.51,68.22Zm3.54-3a1,1,0,0,0,0-.59l2.3-2.31a4.17,4.17,0,0,1,0,5.21Z"/></svg>