<svg id="Layer_1" data-name="Layer 1" xmlns="http://www.w3.org/2000/svg" xmlns:xlink="http://www.w3.org/1999/xlink" viewBox="0 0 120 120"><defs><style>.cls-1{fill:#00abe7;}.cls-2{fill:url(#linear-gradient);}.cls-3{fill:url(#linear-gradient-2);}.cls-4,.cls-9{fill:none;}.cls-4{stroke:#a9cbeb;stroke-miterlimit:10;stroke-width:0.5px;}.cls-5{fill:#52738d;}.cls-6{fill:#ed1800;}.cls-7{fill:url(#linear-gradient-3);}.cls-8{fill:url(#linear-gradient-4);}</style><linearGradient id="linear-gradient" x1="-820.58" y1="389" x2="-820.58" y2="308.4" gradientTransform="translate(951.02 101.35) rotate(25)" gradientUnits="userSpaceOnUse"><stop offset="0" stop-color="#76a5cd"/><stop offset="0.53" stop-color="#76a5cd"/><stop offset="0.74" stop-color="#75a4cb"/><stop offset="0.81" stop-color="#719ec4"/><stop offset="0.87" stop-color="#6a95b9"/><stop offset="0.91" stop-color="#6188a8"/><stop offset="0.95" stop-color="#557792"/><stop offset="0.96" stop-color="#52738d"/></linearGradient><linearGradient id="linear-gradient-2" x1="-819.36" y1="389" x2="-819.36" y2="310.9" gradientTransform="translate(951.02 101.35) rotate(25)" gradientUnits="userSpaceOnUse"><stop offset="0" stop-color="#52738d"/><stop offset="0.5" stop-color="#52738d"/><stop offset="0.74" stop-color="#51718b"/><stop offset="0.83" stop-color="#4c6b84"/><stop offset="0.9" stop-color="#446178"/><stop offset="0.95" stop-color="#385268"/><stop offset="0.99" stop-color="#2a3f52"/><stop offset="1" stop-color="#273c4e"/></linearGradient><linearGradient id="linear-gradient-3" x1="975.53" y1="103.76" x2="978.23" y2="103.76" gradientTransform="matrix(0.91, -0.42, 0.41, 0.88, -877.49, 360.49)" gradientUnits="userSpaceOnUse"><stop offset="0" stop-color="#a21e16"/><stop offset="0.06" stop-color="#ae1d13"/><stop offset="0.24" stop-color="#d01a08"/><stop offset="0.4" stop-color="#e51902"/><stop offset="0.5" stop-color="#ed1800"/><stop offset="0.64" stop-color="#e31b06"/><stop offset="0.89" stop-color="#c72116"/><stop offset="1" stop-color="#b9251e"/></linearGradient><linearGradient id="linear-gradient-4" x1="970.13" y1="103.76" x2="972.83" y2="103.76" xlink:href="#linear-gradient-3"/></defs><title>Maintenance</title><circle class="cls-1" cx="60" cy="60" r="60"/><path class="cls-2" d="M90,40.14l-4.26-2L77,34.09c-5-2.31-9.49-2.63-13.48-1-5.9,2.49-8.39,8.5-8.7,9.28C46.47,60.66,34.17,87.23,30.93,93.93l-1,2.23h0l-1.86,4,3.13,1.46,2.53-5.43c.19-.37.39-.8.64-1.32.7-1.46,1.69-3.54,2.87-6,2.07-4.42,4.94-10.59,8.53-18.34,6.18-13.33,12.32-26.67,12.32-26.67l.05-.13s2-5.32,6.8-7.31c3-1.27,6.62-1,10.64.91l8.72,4.07,4.26,2,2,.92L92,41.05Z"/><path class="cls-3" d="M85.87,41l-1.48-.69-3.23-1.5-6.6-3.08c-3.76-1.75-7.19-2-10.2-.76a13,13,0,0,0-6.54,6.93C51.54,55.5,42.34,75.4,39.91,80.41l-.78,1.67h0l-1.4,3-7.51,16.12.24.11,2.14,1,7.51-16.12L42,82.12c.14-.28.3-.6.48-1C43,80,43.75,78.48,44.63,76.6c1.55-3.31,3.7-7.92,6.39-13.72,4.62-10,9.21-20,9.21-20l0-.1s1.53-4,5.11-5.46c2.3-.94,5-.7,8.06.73L80,41.17l3.23,1.5,1.49.69,5,2.36,1.12-2.4Z"/><path class="cls-4" d="M30.22,101.19,58.75,40s5-9.34,16.48-4l15.69,7.32"/><path class="cls-5" d="M75.44,95.75,60.25,63.19a1.33,1.33,0,0,0-1.79-.65h0a1.33,1.33,0,0,0-.65,1.79L73,96.92a.6.6,0,0,1,.06.19l.55,3.27a.64.64,0,0,0,.06.18L75,103.49a.71.71,0,0,0,.95.35l2.84-1.32a.72.72,0,0,0,.35-1l-1.37-2.93a.86.86,0,0,0-.1-.16l-2.17-2.55A1,1,0,0,1,75.44,95.75Z"/><path class="cls-6" d="M60.88,53.78A4.67,4.67,0,0,0,60.53,51L45.42,18.6a4.35,4.35,0,0,0-5.77-2.1l-4.37,2a4.32,4.32,0,0,0-2.09,5.76L48.3,56.72a4.73,4.73,0,0,0,1.9,2,6.53,6.53,0,0,1,2.06,2.5l1.06,2.26a.53.53,0,0,1-.26.71l-.54.25a.54.54,0,0,0-.26.72l.25.55a.54.54,0,0,0,.72.26l4.48-2.09L60,62.85l4.48-2.09a.53.53,0,0,0,.26-.71l-.25-.55a.54.54,0,0,0-.72-.26l-.54.25a.53.53,0,0,1-.71-.26L61.46,57A6.4,6.4,0,0,1,60.88,53.78Z"/><path class="cls-7" d="M38.69,17,59.37,61.29l2.44-1.14L41.27,16.09a4.55,4.55,0,0,0-1.62.41Z"/><path class="cls-8" d="M36.24,18.09l-1,.45a4.44,4.44,0,0,0-1.35,1L54.47,63.57l2.45-1.14Z"/><line class="cls-9" x1="52.76" y1="64.37" x2="63.5" y2="59.36"/></svg>