<svg id="Layer_1" data-name="Layer 1" xmlns="http://www.w3.org/2000/svg" viewBox="0 0 120 120"><defs><style>.cls-1{fill:#00abe7;}.cls-2{fill:#122941;}.cls-3{fill:#fff;}.cls-4{fill:#d8e8f8;}.cls-5{fill:none;stroke:#ed1800;stroke-miterlimit:10;stroke-dasharray:5 3;}</style></defs><title>Start Sewing </title><circle class="cls-1" cx="60" cy="60" r="60"/><path class="cls-2" d="M98.84,54.26l-61.5-35.5a3.5,3.5,0,0,0-5.25,3v71a3.5,3.5,0,0,0,5.25,3l61.5-35.5A3.51,3.51,0,0,0,98.84,54.26Z"/><path class="cls-3" d="M99.5,57.26,37.39,21.76a3.53,3.53,0,0,0-5.3,3v71a3.53,3.53,0,0,0,5.3,3L99.5,63.33A3.49,3.49,0,0,0,99.5,57.26Z"/><path class="cls-4" d="M98.84,56.26l-61.5-35.5a3.5,3.5,0,0,0-5.25,3v71a3.5,3.5,0,0,0,5.25,3l61.5-35.5A3.51,3.51,0,0,0,98.84,56.26Z"/><path class="cls-5" d="M32.25,60.49H64.16a8.09,8.09,0,0,0,8.09-8.08v-2"/></svg>